Patient4_TMGait_0pt4_01_right_36_EMG.mot
version=1
nRows=16
nColumns=33
inDegrees=no
endheader
time	1LAddLong	2LGlutMax	3LGlutMed	4LIliopsoas	5LSemiMemb	6LBicFemLong	7LRecFem	8LVastMed	9LVastLat	10LGasMed	11LTibAnt	12lTibPost	13LPeroneusLong	14LSol	15LExtDigLong	16LFlexDigLong	17RAddLong	18RGlutMax	19RGlutMed	20RIliopsoas	21RSemiMemb	22RBicFemLong	23RRecFem	24RVastMed	25RVastLat	26RGasMed	27RTibAnt	28RTibPost	29RPeroneusLong	30RSol	31RExtDigLong	32RFlexDigLong
47.377	-0.017242	0.074158	-0.024261	-0.003052	0.003815	-0.046387	0.43808	0.007172	0.20142	-0.037842	0.001831	-0.006714	-0.037384	-0.056915	0.012665	0.002594	-0.046997	-1.078	-1.0464	0.2179	0.22293	0.033569	0.42328	0.20828	0.041199	-0.091248	-0.097198	-0.45227	-0.13901	-0.25192	-0.004578	-0.011597
47.378	-0.020905	0.1004	-0.024719	-0.005341	0.009003	-0.049438	0.36423	0.009308	0.19852	-0.049438	0.000458	-0.00885	-0.021515	-0.051727	0.023651	-0.010681	-0.040894	-1.0054	-0.7431	0.22492	0.007477	0.14969	0.46417	0.24658	0.020294	-0.085907	-0.089417	-0.025635	0.65475	-0.005341	-0.002899	-0.015259
47.379	-0.000458	0.094757	-0.022125	-0.000458	0.002136	-0.041351	0.24994	0.009003	0.19898	-0.041351	0.005341	-0.006104	-0.038757	0.04837	0.009918	0.011139	-0.0383	-1.0007	-0.35797	0.17395	-0.085907	0.069427	0.55039	0.1564	-0.023041	-0.082855	-0.092621	0.43152	0.66223	-0.79056	-0.002441	-0.017853
47.38	-0.025177	0.1149	-0.019531	0.000153	0.003204	-0.030518	0.11795	0.007172	0.19363	-0.016327	0.030518	-0.00351	-0.018158	0.13016	0.016632	-0.000305	-0.039368	-1.133	-0.8757	0.177	0.009155	-0.054016	0.62134	0.15747	-0.056763	-0.030212	-0.030212	0.30365	-0.043488	-1.1469	-0.009003	-0.018311
47.381	-0.020447	0.09552	-0.036163	-0.001373	-0.003357	-0.039215	0.001984	0.016632	0.1561	-0.00946	0.026398	0.006256	-0.020447	0.09903	0.014801	-0.014496	-0.023193	-1.2013	-0.92346	0.14008	0.042725	-0.047302	0.62454	0.085297	-0.11154	0.076447	0.054321	0.1738	0.2005	0.066986	-0.004883	-0.022888
47.382	-0.00351	0.067902	-0.039368	0.014343	0.015717	-0.016632	0.019684	0.011749	0.15549	-0.006409	-0.031433	0.001984	-0.023956	0.03479	0.007782	-0.013885	-0.009918	-1.1049	0.18509	-0.007629	0.028839	-0.067902	0.6189	0.032043	-0.12985	0.031128	0.14999	0.061646	0.78323	0.89004	-0.004578	-0.0177
47.383	-0.016937	0.090179	-0.040283	0.006256	0.00473	-0.044098	0.14877	0.020599	0.15472	-0.007935	0.015411	0.003815	-0.025482	0.063934	0.01297	-0.020905	-0.005341	-0.95978	-0.00885	0.007935	0.052795	0.077667	0.46448	-0.063782	-0.12528	0.009766	0.17548	-0.000458	0.74768	0.72342	0.00061	-0.010071
47.384	-0.006256	0.079193	-0.045776	-0.015869	0.00885	-0.028534	0.18219	0.018616	0.17624	-0.06485	-0.02121	0.00473	-0.016785	0.084839	0.016327	-0.019379	-0.031128	-1.001	0.10895	-0.030975	0.064087	0.31601	0.23499	-0.051575	-0.12482	-0.000916	0.091095	-0.004425	-0.1033	0.61508	-0.003204	-0.00473
47.385	-0.014343	0.11765	-0.060425	0.008698	0.000763	-0.033112	0.20737	0.020294	0.19424	-0.042725	-0.001068	0.006409	-0.019531	0.12116	0.016632	-0.022125	-0.017395	-0.98373	-0.31158	-0.084839	0.062866	0.31235	0.08194	-0.1207	-0.098572	-0.013275	-0.19379	-0.023041	-0.57571	0.009003	-0.003662	-0.003967
47.386	-0.007477	0.10544	-0.06012	-0.020142	0.004272	-0.032196	0.22522	0.022583	0.17334	-0.038757	-0.001984	0.005188	-0.013123	0.11978	0.017548	-0.030823	-0.017242	-0.96817	-0.62943	-0.10223	0.064087	0.36529	-0.040131	-0.1355	0.035553	-0.016632	-0.008545	-0.18814	0.089874	-0.065155	-0.007782	-0.010986
47.387	-0.008698	0.080719	-0.077972	0.006256	0.003204	-0.042419	0.1326	0.0177	0.15472	-0.026093	-0.006104	0.007477	-0.021515	0.103	-0.00412	-0.022278	-0.015717	-0.97931	-0.36301	-0.096283	0.056763	0.41275	0.056763	-0.028992	0.052795	-0.027008	0.19516	0.029907	0.65338	-0.28473	0.000458	-0.010223
47.388	-0.007629	0.0914	-0.059509	0.015717	0.004425	-0.040741	0.045013	0.010071	0.19501	-0.016022	-0.003052	0.003815	-0.003204	0.091858	-0.036011	-0.028076	-0.005951	-1.0117	-0.11368	0.015106	0.054321	0.47012	0.25177	-0.007324	0.056305	-0.029144	0.15167	0.090332	1.1687	-0.16296	-0.001831	-0.021515
47.389	0.004425	0.075073	-0.066528	0.010223	0.005188	-0.019531	-0.083008	0.011292	0.19943	-0.020905	0.004425	0.001678	-0.013275	0.068665	-0.059662	-0.020142	-0.010376	-1.05	-0.22201	0.072937	0.065613	0.43976	0.21439	0.00412	0.075378	0.023804	0.097504	-0.001831	1.5971	-0.044556	-0.003357	-0.007935
47.39	-0.007019	0.054474	-0.10483	0.004883	0.009613	-0.027771	-0.083771	0.016174	0.21729	-0.019226	0.001526	-0.003357	-0.013428	0.034943	-0.037689	-0.018616	-0.007172	-1.123	-0.51132	0.079346	0.088043	0.21393	0.080109	0.052338	0.11124	0.052032	0.074768	-0.039063	0.83756	0.013123	-0.003815	-0.002441
47.391	0.003662	0.060883	-0.13245	0.037537	0.004883	-0.0354	0.046844	0.010223	0.21271	-0.0354	-0.013123	0.011902	-0.016937	0.058289	-0.00946	-0.022125	-0.014343	-1.1485	-0.41748	0.015259	0.073547	-0.052338	0.027618	0.054474	0.1445	0.029755	0.07431	-0.006714	-2.3624	0.11505	-0.00412	0.000305
47.392	-0.003204	0.027924	-0.19196	0.025482	0.003052	-0.032043	0.16419	0	0.20187	-0.003357	-0.071259	0.008392	-0.016785	0.04715	-0.007019	-0.030518	0.003815	-1.1134	-0.33096	-0.031128	0.024414	-0.061035	-0.005188	-0.016327	0.22705	0.024872	0.023804	0.013885	-1.5689	-0.21484	0.000153	-0.00473
